<svg xmlns="http://www.w3.org/2000/svg" width="256" height="256" viewBox="0 0 256 256" fill="none">
  <defs>
    <linearGradient id="pink" x1="0" y1="0" x2="1" y2="1">
      <stop offset="0%" stop-color="#f472b6"/>
      <stop offset="100%" stop-color="#ec4899"/>
    </linearGradient>
  </defs>
  <g>
    <!-- Ears -->
    <ellipse cx="84" cy="64" rx="28" ry="24" fill="url(#pink)"/>
    <ellipse cx="172" cy="58" rx="26" ry="22" fill="url(#pink)"/>
    <!-- Head/body blob -->
    <path d="M48 124c0-49 39-84 84-84s92 35 92 90c0 55-46 94-104 94S48 180 48 124z" fill="url(#pink)"/>
    <!-- Face -->
    <circle cx="98" cy="130" r="12" fill="white"/>
    <circle cx="98" cy="130" r="6" fill="#111827"/>
    <circle cx="158" cy="130" r="12" fill="white"/>
    <circle cx="158" cy="130" r="6" fill="#111827"/>
    <path d="M104 170c10 12 38 12 48 0" stroke="#111827" stroke-width="6" stroke-linecap="round"/>
    <!-- Blush -->
    <ellipse cx="76" cy="154" rx="12" ry="8" fill="#fca5a5" opacity="0.7"/>
    <ellipse cx="180" cy="154" rx="12" ry="8" fill="#fca5a5" opacity="0.7"/>
  </g>
</svg>
